grf
version=1
nRows=39
nColumns=19
inDegrees=yes
endheader
time	ground_force_1_vx	ground_force_1_vy	ground_force_1_vz	ground_force_1_px	ground_force_1_py	ground_force_1_pz	ground_moment_1_mx	ground_moment_1_my	ground_moment_1_mz	ground_force_2_vx	ground_force_2_vy	ground_force_2_vz	ground_force_2_px	ground_force_2_py	ground_force_2_pz	ground_moment_2_mx	ground_moment_2_my	ground_moment_2_mz
1.065000	0.000000	0.000000	0.000000	0.000000	0.000000	0.000000	0.000000	0.000000	0.000000	1.951051	535.718506	13.078507	0.266431	0.000000	0.113643	-0.000000	1.154359	0.000000
1.066000	0.000000	0.000000	0.000000	0.000000	0.000000	0.000000	0.000000	0.000000	0.000000	1.061614	530.192383	13.432904	0.268086	0.000000	0.112307	-0.000000	1.140459	0.000000
1.067000	0.000000	0.000000	0.000000	0.000000	0.000000	0.000000	0.000000	0.000000	0.000000	1.891755	528.707703	13.334461	0.268071	0.000000	0.112914	-0.000000	1.203319	0.000000
1.068000	0.000000	0.000000	0.000000	0.000000	0.000000	0.000000	0.000000	0.000000	0.000000	0.962787	529.367554	13.806991	0.267903	0.000000	0.112653	-0.000000	1.236874	0.000000
1.069000	0.000000	0.000000	0.000000	0.000000	0.000000	0.000000	0.000000	0.000000	0.000000	0.784900	533.573975	13.551038	0.267986	0.000000	0.113374	-0.000000	1.390979	0.000000
1.070000	0.000000	0.000000	0.000000	0.000000	0.000000	0.000000	0.000000	0.000000	0.000000	0.350064	532.006836	12.625666	0.267202	0.000000	0.111791	-0.000000	1.175532	0.000000
1.071000	0.000000	0.000000	0.000000	0.000000	0.000000	0.000000	0.000000	0.000000	0.000000	0.172176	538.192871	13.078506	0.267349	0.000000	0.113966	-0.000000	1.257022	0.000000
1.072000	0.000000	0.000000	0.000000	0.000000	0.000000	0.000000	0.000000	0.000000	0.000000	-0.559139	542.729309	13.590415	0.267771	0.000000	0.114821	-0.000000	1.203342	0.000000
1.073000	0.000000	0.000000	0.000000	0.000000	0.000000	0.000000	0.000000	0.000000	0.000000	-0.914913	545.368652	13.432903	0.267776	0.000000	0.114929	-0.000000	1.249151	0.000000
1.074000	0.000000	0.000000	0.000000	0.000000	0.000000	0.000000	0.000000	0.000000	0.000000	-0.934679	541.657104	12.960375	0.266914	0.000000	0.114506	-0.000000	1.343446	0.000000
1.075000	0.000000	0.000000	0.000000	0.000000	0.000000	0.000000	0.000000	0.000000	0.000000	-1.270688	541.739502	12.980063	0.266555	0.000000	0.114539	-0.000000	1.318982	0.000000
1.076000	0.000000	0.000000	0.000000	0.000000	0.000000	0.000000	0.000000	0.000000	0.000000	-1.448576	546.523315	12.980062	0.266832	0.000000	0.114599	-0.000000	1.322275	0.000000
1.077000	0.000000	0.000000	0.000000	0.000000	0.000000	0.000000	0.000000	0.000000	0.000000	-2.160125	550.647339	13.078506	0.266840	0.000000	0.115714	-0.000000	1.264786	0.000000
1.078000	0.000000	0.000000	0.000000	0.000000	0.000000	0.000000	0.000000	0.000000	0.000000	-2.081064	547.925537	12.783175	0.266411	0.000000	0.114132	-0.000000	1.385051	0.000000
1.079000	0.000000	0.000000	0.000000	0.000000	0.000000	0.000000	0.000000	0.000000	0.000000	-2.871675	551.719604	13.452595	0.266575	0.000000	0.115175	-0.000000	1.326906	0.000000
1.080000	0.000000	0.000000	0.000000	0.000000	0.000000	0.000000	0.000000	0.000000	0.000000	-3.168154	553.534180	12.960375	0.266540	0.000000	0.115375	-0.000000	1.381260	0.000000
1.081000	0.000000	0.000000	0.000000	0.000000	0.000000	0.000000	0.000000	0.000000	0.000000	-3.049563	549.245239	12.783175	0.265448	0.000000	0.113762	-0.000000	1.383895	0.000000
1.082000	0.000000	0.000000	0.000000	0.000000	0.000000	0.000000	0.000000	0.000000	0.000000	-2.950737	551.554688	12.487844	0.265003	0.000000	0.114636	-0.000000	1.371228	0.000000
1.083000	0.000000	0.000000	0.000000	0.000000	0.000000	0.000000	0.000000	0.000000	0.000000	-2.753084	552.296997	12.546910	0.266291	0.000000	0.115347	-0.000000	1.524799	0.000000
1.084000	0.000000	0.000000	0.000000	0.000000	0.000000	0.000000	0.000000	0.000000	0.000000	-3.227450	554.771362	12.369712	0.264974	0.000000	0.114533	-0.000000	1.390521	0.000000
1.085000	0.000000	0.000000	0.000000	0.000000	0.000000	0.000000	0.000000	0.000000	0.000000	-3.425103	554.853882	12.389400	0.265290	0.000000	0.115599	-0.000000	1.592517	0.000000
1.086000	0.000000	0.000000	0.000000	0.000000	0.000000	0.000000	0.000000	0.000000	0.000000	-3.958766	556.503418	12.153135	0.264399	0.000000	0.115687	-0.000000	1.585520	0.000000
1.087000	0.000000	0.000000	0.000000	0.000000	0.000000	0.000000	0.000000	0.000000	0.000000	-3.741347	556.091064	12.251579	0.265904	0.000000	0.114690	-0.000000	1.550206	0.000000
1.088000	0.000000	0.000000	0.000000	0.000000	0.000000	0.000000	0.000000	0.000000	0.000000	-3.958765	556.091064	12.113758	0.264462	0.000000	0.114536	-0.000000	1.658653	0.000000
1.089000	0.000000	0.000000	0.000000	0.000000	0.000000	0.000000	0.000000	0.000000	0.000000	-4.255244	557.328247	12.369712	0.265670	0.000000	0.115156	-0.000000	1.687488	0.000000
1.090000	0.000000	0.000000	0.000000	0.000000	0.000000	0.000000	0.000000	0.000000	0.000000	-4.611019	557.988098	12.409088	0.263552	0.000000	0.114621	-0.000000	1.597404	0.000000
1.091000	0.000000	0.000000	0.000000	0.000000	0.000000	0.000000	0.000000	0.000000	0.000000	-4.729611	560.462524	11.897181	0.262525	0.000000	0.114884	-0.000000	1.654844	0.000000
1.092000	0.000000	0.000000	0.000000	0.000000	0.000000	0.000000	0.000000	0.000000	0.000000	-5.105151	561.122314	11.956247	0.263596	0.000000	0.115130	-0.000000	1.680415	0.000000
1.093000	0.000000	0.000000	0.000000	0.000000	0.000000	0.000000	0.000000	0.000000	0.000000	-5.302804	565.906189	12.212201	0.264063	0.000000	0.115519	-0.000000	1.779497	0.000000
1.094000	0.000000	0.000000	0.000000	0.000000	0.000000	0.000000	0.000000	0.000000	0.000000	-6.073649	568.215576	12.251579	0.263564	0.000000	0.116040	-0.000000	1.687060	0.000000
1.095000	0.000000	0.000000	0.000000	0.000000	0.000000	0.000000	0.000000	0.000000	0.000000	-6.686373	566.978394	12.507532	0.262939	0.000000	0.115651	-0.000000	1.690022	0.000000
1.096000	0.000000	0.000000	0.000000	0.000000	0.000000	0.000000	0.000000	0.000000	0.000000	-7.101443	568.545532	12.605977	0.263152	0.000000	0.115805	-0.000000	1.688205	0.000000
1.097000	0.000000	0.000000	0.000000	0.000000	0.000000	0.000000	0.000000	0.000000	0.000000	-6.548016	570.277588	12.035002	0.262413	0.000000	0.115163	-0.000000	1.759391	0.000000
1.098000	0.000000	0.000000	0.000000	0.000000	0.000000	0.000000	0.000000	0.000000	0.000000	-6.627077	573.494324	12.133447	0.263279	0.000000	0.115560	-0.000000	1.838554	0.000000
1.099000	0.000000	0.000000	0.000000	0.000000	0.000000	0.000000	0.000000	0.000000	0.000000	-7.476984	563.926636	11.995625	0.261532	0.000000	0.116082	-0.000000	1.715371	0.000000
1.100000	0.000000	0.000000	0.000000	0.000000	0.000000	0.000000	0.000000	0.000000	0.000000	-7.476984	579.350464	12.094069	0.261332	0.000000	0.116462	-0.000000	1.635298	0.000000
1.101000	0.000000	0.000000	0.000000	0.000000	0.000000	0.000000	0.000000	0.000000	0.000000	-8.801257	582.484619	11.680605	0.262226	0.000000	0.116232	-0.000000	1.725614	0.000000
1.102000	0.000000	0.000000	0.000000	0.000000	0.000000	0.000000	0.000000	0.000000	0.000000	-8.129237	583.639343	12.133446	0.260885	0.000000	0.117588	-0.000000	1.976769	0.000000
1.103000	0.000000	0.000000	0.000000	0.000000	0.000000	0.000000	0.000000	0.000000	0.000000	-9.315154	589.165527	12.802863	0.261241	0.000000	0.117289	-0.000000	1.821053	0.000000
